<svg width="123" height="28" viewBox="0 0 123 28" fill="none" xmlns="http://www.w3.org/2000/svg">
    <g clip-path="url(#clip0_9055_20)">
        <path d="M27.44 6.75C27.38 3.01 24.34 0 20.59 0C16.84 0 13.79 3.02 13.74 6.75V21.1C13.74 21.1 13.74 21.12 13.74 21.14C13.74 24.93 16.81 28 20.6 28C24.39 28 27.46 24.93 27.46 21.14C27.46 21.13 27.46 21.12 27.46 21.1V6.75H27.44Z" fill="#7AF4E6"/>
        <path d="M11.67 1.95001C8.99001 -0.649992 4.70001 -0.629992 2.05001 2.02001C-0.599993 4.67001 -0.619993 8.96001 1.98001 11.64L15.74 25.96C15.74 25.96 15.76 25.98 15.76 25.99C18.44 28.67 22.78 28.67 25.46 25.99C28.14 23.31 28.14 18.97 25.46 16.29C25.46 16.29 25.44 16.27 25.43 16.27L11.67 1.95001Z" fill="#2FB8AC"/>
        <path d="M13.72 6.75C13.66 3.01 10.62 0 6.87 0C3.12 0 0.06 3.02 0 6.75V21.1C0 21.1 0 21.12 0 21.14C0 24.93 3.07 28 6.86 28C10.65 28 13.72 24.93 13.72 21.14C13.72 21.13 13.72 21.12 13.72 21.1V6.75Z" fill="#ED706E"/>
        <path d="M35.68 28C40.2253 28 43.91 24.3153 43.91 19.77C43.91 15.2247 40.2253 11.54 35.68 11.54C31.1347 11.54 27.45 15.2247 27.45 19.77C27.45 24.3153 31.1347 28 35.68 28Z" fill="#9B5996"/>
        <path d="M55.31 12.87V8.48C55.31 7.45 54.61 6.78 53.66 6.78C52.8 6.78 52.01 7.39 52.01 8.48V12.87H50V5.09H51.91V5.84C52.52 5.3 53.36 5 54.1 5C56.09 5 57.31 6.25 57.31 8.39V12.87H55.3H55.31Z" fill="#37414A"/>
        <path d="M62.84 13.02C60.43 13.02 58.71 11.26 58.71 8.97001C58.71 6.68001 60.42 4.92001 62.84 4.92001C65.26 4.92001 66.98 6.68001 66.98 8.97001C66.98 11.26 65.25 13.02 62.84 13.02ZM65.01 8.97001C65.01 7.69001 64.03 6.71001 62.85 6.71001C61.67 6.71001 60.7 7.69001 60.7 8.97001C60.7 10.25 61.67 11.23 62.85 11.23C64.03 11.23 65.01 10.25 65.01 8.97001Z" fill="#37414A"/>
        <path d="M72.94 7.31999C72.49 6.75999 71.79 6.49999 71.17 6.49999C70.5 6.49999 70.1 6.75999 70.1 7.16999C70.1 8.55999 74.41 7.67999 74.41 10.59C74.41 12.32 72.95 13.11 71.25 13.11C70.05 13.11 68.68 12.74 67.76 11.74L69.07 10.49C69.69 11.14 70.49 11.42 71.28 11.42C72.07 11.42 72.43 11.12 72.43 10.78C72.43 9.43999 68.16 10.24 68.16 7.17999C68.16 5.78999 69.31 4.82999 71.16 4.82999C72.41 4.82999 73.51 5.18999 74.27 6.11999L72.93 7.29999L72.94 7.31999Z" fill="#37414A"/>
        <path d="M80.37 7.31999C79.92 6.75999 79.22 6.49999 78.6 6.49999C77.93 6.49999 77.53 6.75999 77.53 7.16999C77.53 8.55999 81.84 7.67999 81.84 10.59C81.84 12.32 80.38 13.11 78.68 13.11C77.48 13.11 76.11 12.74 75.19 11.74L76.5 10.49C77.12 11.14 77.92 11.42 78.71 11.42C79.5 11.42 79.86 11.12 79.86 10.78C79.86 9.43999 75.59 10.24 75.59 7.17999C75.59 5.78999 76.74 4.82999 78.59 4.82999C79.84 4.82999 80.94 5.18999 81.7 6.11999L80.36 7.29999L80.37 7.31999Z" fill="#37414A"/>
        <path d="M83.17 3.17C83.17 2.55 83.67 2.03 84.31 2.03C84.95 2.03 85.45 2.54 85.45 3.17C85.45 3.8 84.94 4.31 84.31 4.31C83.68 4.31 83.17 3.8 83.17 3.17ZM83.31 12.87V5.09H85.32V12.87H83.31Z" fill="#37414A"/>
        <path d="M91.81 7.31999C91.36 6.75999 90.66 6.49999 90.04 6.49999C89.37 6.49999 88.97 6.75999 88.97 7.16999C88.97 8.55999 93.28 7.67999 93.28 10.59C93.28 12.32 91.82 13.11 90.12 13.11C88.92 13.11 87.55 12.74 86.63 11.74L87.94 10.49C88.56 11.14 89.36 11.42 90.15 11.42C90.94 11.42 91.3 11.12 91.3 10.78C91.3 9.43999 87.03 10.24 87.03 7.17999C87.03 5.78999 88.18 4.82999 90.03 4.82999C91.28 4.82999 92.38 5.18999 93.14 6.11999L91.8 7.29999L91.81 7.31999Z" fill="#37414A"/>
        <path d="M96.31 9.07999C96.31 6.70999 97.94 5.04999 100.27 5.04999C102.6 5.04999 104.23 6.70999 104.23 9.07999C104.23 11.45 102.6 13.11 100.27 13.11C97.94 13.11 96.31 11.43 96.31 9.07999ZM103.15 9.05999C103.15 7.19999 101.88 5.98999 100.26 5.98999C98.64 5.98999 97.37 7.19999 97.37 9.05999C97.37 10.92 98.63 12.16 100.26 12.16C101.89 12.16 103.15 10.92 103.15 9.05999Z" fill="#37414A"/>
        <path d="M113.07 12.96H112.01V8.54999C112.01 6.85999 111.05 6.03999 109.71 6.03999C108.5 6.03999 107.29 6.93999 107.29 8.54999V12.96H106.23V5.19999H107.29V6.28999C107.96 5.52999 108.83 5.07999 109.94 5.07999C111.77 5.07999 113.06 6.28999 113.06 8.34999V12.96H113.07Z" fill="#37414A"/>
        <path d="M122.02 12.28C121.28 12.85 120.38 13.12 119.2 13.12C116.73 13.12 115.01 11.69 115.01 9.09999C115.01 6.72999 116.61 5.04999 118.83 5.04999C121.05 5.04999 122.55 6.55999 122.55 8.78999C122.55 8.80999 122.55 9.04999 122.52 9.34999H116.08C116.2 11.44 117.63 12.17 119.2 12.17C120.21 12.17 120.84 11.91 121.37 11.52L122.02 12.28ZM121.48 8.43999C121.33 6.71999 120.21 5.96999 118.81 5.96999C117.41 5.96999 116.31 6.86999 116.09 8.43999H121.47H121.48Z" fill="#37414A"/>
        <path d="M87.4992 22.93L87.9192 23.42C87.4525 23.78 86.8459 23.96 86.0992 23.96C85.2859 23.96 84.6325 23.7333 84.1392 23.28C83.6458 22.8266 83.3992 22.19 83.3992 21.37C83.3992 20.6033 83.6292 19.9766 84.0892 19.49C84.5559 19.0033 85.1459 18.76 85.8592 18.76C86.5992 18.76 87.1825 18.98 87.6092 19.42C88.0425 19.86 88.2592 20.4433 88.2592 21.17C88.2592 21.2833 88.2525 21.4033 88.2392 21.53H84.0892C84.1292 22.1633 84.3325 22.6266 84.6992 22.92C85.0725 23.2066 85.5392 23.35 86.0992 23.35C86.6525 23.35 87.1192 23.21 87.4992 22.93ZM84.0992 20.95H87.5692C87.5225 20.4166 87.3425 20.02 87.0292 19.76C86.7159 19.4933 86.3225 19.36 85.8492 19.36C85.3892 19.36 84.9992 19.5 84.6792 19.78C84.3592 20.06 84.1659 20.45 84.0992 20.95Z" fill="#2FB8AC"/>
        <path d="M80.8952 21.09V23.86H80.2152V18.86H80.8752V19.54C81.2152 19.04 81.6685 18.79 82.2352 18.79C82.5285 18.79 82.7885 18.8566 83.0152 18.99L82.6052 19.58C82.4519 19.4933 82.2819 19.45 82.0952 19.45C81.7285 19.45 81.4352 19.5966 81.2152 19.89C81.0019 20.1833 80.8952 20.5833 80.8952 21.09Z" fill="#2FB8AC"/>
        <path d="M79.112 23.33V23.93H79.072C78.4053 23.93 77.9653 23.6066 77.752 22.96C77.332 23.6266 76.6687 23.96 75.762 23.96C75.022 23.96 74.422 23.7233 73.962 23.25C73.5087 22.7766 73.282 22.15 73.282 21.37C73.282 20.6166 73.5153 19.9933 73.982 19.5C74.4553 19.0066 75.0453 18.76 75.752 18.76C76.5387 18.76 77.182 19.0433 77.682 19.61V18.86H78.312V21.78C78.312 22.0533 78.3253 22.2866 78.352 22.48C78.4253 23.02 78.6787 23.3033 79.112 23.33ZM75.802 19.37C75.262 19.37 74.822 19.5566 74.482 19.93C74.142 20.2966 73.972 20.7766 73.972 21.37C73.972 21.9633 74.1387 22.4433 74.472 22.81C74.812 23.17 75.2553 23.35 75.802 23.35C76.3487 23.35 76.7953 23.1666 77.142 22.8C77.4887 22.4266 77.662 21.95 77.662 21.37C77.662 20.79 77.4887 20.3133 77.142 19.94C76.7953 19.56 76.3487 19.37 75.802 19.37Z" fill="#2FB8AC"/>
        <path d="M72.2608 22.96L72.6808 23.44C72.2408 23.7866 71.6708 23.96 70.9708 23.96C70.1642 23.96 69.5208 23.7233 69.0408 23.25C68.5675 22.77 68.3308 22.14 68.3308 21.36C68.3308 20.6066 68.5708 19.9866 69.0508 19.5C69.5308 19.0066 70.1542 18.76 70.9208 18.76C71.6142 18.76 72.1942 18.96 72.6608 19.36L72.1708 19.81C71.8375 19.5233 71.4208 19.38 70.9208 19.38C70.3408 19.38 69.8775 19.5666 69.5308 19.94C69.1842 20.3066 69.0108 20.78 69.0108 21.36C69.0108 21.9533 69.1875 22.43 69.5408 22.79C69.8942 23.15 70.3775 23.33 70.9908 23.33C71.4908 23.33 71.9142 23.2066 72.2608 22.96Z" fill="#2FB8AC"/>
        <path d="M66.6007 22.93L67.0207 23.42C66.5541 23.78 65.9474 23.96 65.2007 23.96C64.3874 23.96 63.7341 23.7333 63.2407 23.28C62.7474 22.8266 62.5007 22.19 62.5007 21.37C62.5007 20.6033 62.7307 19.9766 63.1907 19.49C63.6574 19.0033 64.2474 18.76 64.9607 18.76C65.7007 18.76 66.2841 18.98 66.7107 19.42C67.1441 19.86 67.3607 20.4433 67.3607 21.17C67.3607 21.2833 67.3541 21.4033 67.3407 21.53H63.1907C63.2307 22.1633 63.4341 22.6266 63.8007 22.92C64.1741 23.2066 64.6407 23.35 65.2007 23.35C65.7541 23.35 66.2207 23.21 66.6007 22.93ZM63.2007 20.95H66.6707C66.6241 20.4166 66.4441 20.02 66.1307 19.76C65.8174 19.4933 65.4241 19.36 64.9507 19.36C64.4907 19.36 64.1007 19.5 63.7807 19.78C63.4607 20.06 63.2674 20.45 63.2007 20.95Z" fill="#2FB8AC"/>
        <path d="M61.2461 20.89V23.86H60.5661V21.02C60.5661 20.4933 60.4294 20.0933 60.1561 19.82C59.8894 19.54 59.5327 19.4 59.0861 19.4C58.6661 19.4 58.2994 19.5467 57.9861 19.84C57.6794 20.1333 57.5261 20.5267 57.5261 21.02V23.86H56.8461V18.86H57.5261V19.56C57.9794 19.04 58.5494 18.78 59.2361 18.78C59.8361 18.78 60.3194 18.97 60.6861 19.35C61.0594 19.7233 61.2461 20.2367 61.2461 20.89Z" fill="#2FB8AC"/>
        <path d="M54.83 23.23C54.3566 23.7166 53.7466 23.96 53 23.96C52.2533 23.96 51.64 23.7166 51.16 23.23C50.6866 22.7433 50.45 22.12 50.45 21.36C50.45 20.5933 50.6866 19.97 51.16 19.49C51.6333 19.0033 52.2466 18.76 53 18.76C53.7533 18.76 54.3666 19.0033 54.84 19.49C55.3133 19.97 55.55 20.5933 55.55 21.36C55.55 22.12 55.31 22.7433 54.83 23.23ZM53 23.35C53.5266 23.35 53.9666 23.1666 54.32 22.8C54.68 22.4266 54.86 21.9433 54.86 21.35C54.86 20.7633 54.6833 20.2866 54.33 19.92C53.9766 19.5533 53.5333 19.37 53 19.37C52.4666 19.37 52.0233 19.5533 51.67 19.92C51.3166 20.28 51.14 20.7566 51.14 21.35C51.14 21.9366 51.3166 22.4166 51.67 22.79C52.0233 23.1633 52.4666 23.35 53 23.35Z" fill="#2FB8AC"/>
    </g>
    <defs>
        <clipPath id="clip0_9055_20">
            <rect width="122.5" height="28" fill="white"/>
        </clipPath>
    </defs>
</svg>