<svg width="123" height="28" viewBox="0 0 123 28" fill="none" xmlns="http://www.w3.org/2000/svg">
    <g clip-path="url(#clip0_9055_78)">
        <path d="M27.44 6.75C27.38 3.02 24.34 0 20.58 0C16.82 0 13.78 3.02 13.73 6.75V21.1C13.73 21.1 13.73 21.12 13.73 21.14C13.73 24.93 16.8 28 20.59 28C24.38 28 27.45 24.93 27.45 21.14C27.45 21.13 27.45 21.12 27.45 21.1V6.75H27.44Z" fill="#7AF4E6"/>
        <path d="M11.67 1.95001C8.99 -0.649992 4.7 -0.629992 2.05 2.02001C-0.600001 4.67001 -0.620001 8.96001 1.98 11.64L15.74 25.96C15.74 25.96 15.76 25.98 15.76 25.99C18.44 28.67 22.78 28.67 25.46 25.99C28.14 23.31 28.14 18.97 25.46 16.29C25.46 16.29 25.44 16.27 25.43 16.27L11.67 1.95001Z" fill="#2FB8AC"/>
        <path d="M13.72 6.75C13.66 3.02 10.61 0 6.86 0C3.11 0 0.06 3.02 0 6.75V21.1C0 21.1 0 21.12 0 21.14C0 24.93 3.07 28 6.86 28C10.65 28 13.72 24.93 13.72 21.14C13.72 21.13 13.72 21.12 13.72 21.1V6.75Z" fill="#ED706E"/>
        <path d="M35.68 28C40.2253 28 43.91 24.3153 43.91 19.77C43.91 15.2247 40.2253 11.54 35.68 11.54C31.1347 11.54 27.45 15.2247 27.45 19.77C27.45 24.3153 31.1347 28 35.68 28Z" fill="#9B5996"/>
        <path d="M55.22 12.87V8.48C55.22 7.45 54.52 6.78 53.57 6.78C52.71 6.78 51.92 7.39 51.92 8.48V12.87H49.91V5.09H51.82V5.84C52.43 5.3 53.27 5 54.01 5C56 5 57.22 6.25 57.22 8.39V12.87H55.21H55.22Z" fill="white"/>
        <path d="M62.75 13.02C60.34 13.02 58.62 11.26 58.62 8.97001C58.62 6.68001 60.33 4.92001 62.75 4.92001C65.17 4.92001 66.89 6.68001 66.89 8.97001C66.89 11.26 65.16 13.02 62.75 13.02ZM64.92 8.97001C64.92 7.69001 63.94 6.71001 62.76 6.71001C61.58 6.71001 60.61 7.69001 60.61 8.97001C60.61 10.25 61.58 11.23 62.76 11.23C63.94 11.23 64.92 10.25 64.92 8.97001Z" fill="white"/>
        <path d="M72.85 7.31999C72.4 6.75999 71.7 6.49999 71.08 6.49999C70.41 6.49999 70.01 6.75999 70.01 7.16999C70.01 8.55999 74.32 7.67999 74.32 10.59C74.32 12.32 72.86 13.11 71.16 13.11C69.96 13.11 68.59 12.74 67.67 11.74L68.98 10.49C69.6 11.14 70.4 11.42 71.19 11.42C71.98 11.42 72.34 11.12 72.34 10.78C72.34 9.43999 68.07 10.24 68.07 7.17999C68.07 5.78999 69.22 4.82999 71.07 4.82999C72.32 4.82999 73.42 5.18999 74.18 6.11999L72.84 7.29999L72.85 7.31999Z" fill="white"/>
        <path d="M80.28 7.31999C79.83 6.75999 79.13 6.49999 78.51 6.49999C77.84 6.49999 77.44 6.75999 77.44 7.16999C77.44 8.55999 81.75 7.67999 81.75 10.59C81.75 12.32 80.29 13.11 78.59 13.11C77.39 13.11 76.02 12.74 75.1 11.74L76.41 10.49C77.03 11.14 77.83 11.42 78.62 11.42C79.41 11.42 79.77 11.12 79.77 10.78C79.77 9.43999 75.5 10.24 75.5 7.17999C75.5 5.78999 76.65 4.82999 78.5 4.82999C79.75 4.82999 80.85 5.18999 81.61 6.11999L80.27 7.29999L80.28 7.31999Z" fill="white"/>
        <path d="M83.08 3.17C83.08 2.55 83.58 2.03 84.22 2.03C84.86 2.03 85.36 2.54 85.36 3.17C85.36 3.8 84.85 4.31 84.22 4.31C83.59 4.31 83.08 3.8 83.08 3.17ZM83.22 12.87V5.09H85.23V12.87H83.22Z" fill="white"/>
        <path d="M91.72 7.31999C91.27 6.75999 90.57 6.49999 89.95 6.49999C89.28 6.49999 88.88 6.75999 88.88 7.16999C88.88 8.55999 93.19 7.67999 93.19 10.59C93.19 12.32 91.73 13.11 90.03 13.11C88.83 13.11 87.46 12.74 86.54 11.74L87.85 10.49C88.47 11.14 89.27 11.42 90.06 11.42C90.85 11.42 91.21 11.12 91.21 10.78C91.21 9.43999 86.94 10.24 86.94 7.17999C86.94 5.78999 88.09 4.82999 89.94 4.82999C91.19 4.82999 92.29 5.18999 93.05 6.11999L91.71 7.29999L91.72 7.31999Z" fill="white"/>
        <path d="M96.22 9.07999C96.22 6.70999 97.85 5.04999 100.18 5.04999C102.51 5.04999 104.14 6.70999 104.14 9.07999C104.14 11.45 102.51 13.11 100.18 13.11C97.85 13.11 96.22 11.43 96.22 9.07999ZM103.06 9.05999C103.06 7.19999 101.79 5.98999 100.17 5.98999C98.55 5.98999 97.28 7.19999 97.28 9.05999C97.28 10.92 98.54 12.16 100.17 12.16C101.8 12.16 103.06 10.92 103.06 9.05999Z" fill="white"/>
        <path d="M112.98 12.96H111.92V8.54999C111.92 6.85999 110.96 6.03999 109.62 6.03999C108.41 6.03999 107.2 6.93999 107.2 8.54999V12.96H106.14V5.19999H107.2V6.28999C107.87 5.52999 108.74 5.07999 109.85 5.07999C111.68 5.07999 112.97 6.28999 112.97 8.34999V12.96H112.98Z" fill="white"/>
        <path d="M121.93 12.28C121.19 12.85 120.29 13.12 119.11 13.12C116.64 13.12 114.92 11.69 114.92 9.09999C114.92 6.72999 116.52 5.04999 118.74 5.04999C120.96 5.04999 122.46 6.55999 122.46 8.78999C122.46 8.80999 122.46 9.04999 122.43 9.34999H115.99C116.11 11.44 117.54 12.17 119.11 12.17C120.12 12.17 120.75 11.91 121.28 11.52L121.93 12.28ZM121.39 8.43999C121.24 6.71999 120.12 5.96999 118.72 5.96999C117.32 5.96999 116.22 6.86999 116 8.43999H121.38H121.39Z" fill="white"/>
        <path d="M87.4092 22.93L87.8292 23.42C87.3626 23.78 86.7559 23.96 86.0092 23.96C85.1959 23.96 84.5426 23.7333 84.0492 23.28C83.5559 22.8266 83.3092 22.19 83.3092 21.37C83.3092 20.6033 83.5392 19.9766 83.9992 19.49C84.4659 19.0033 85.0559 18.76 85.7692 18.76C86.5092 18.76 87.0926 18.98 87.5192 19.42C87.9526 19.86 88.1692 20.4433 88.1692 21.17C88.1692 21.2833 88.1626 21.4033 88.1492 21.53H83.9992C84.0392 22.1633 84.2426 22.6266 84.6092 22.92C84.9826 23.2066 85.4492 23.35 86.0092 23.35C86.5626 23.35 87.0292 23.21 87.4092 22.93ZM84.0092 20.95H87.4792C87.4326 20.4166 87.2526 20.02 86.9392 19.76C86.6259 19.4933 86.2326 19.36 85.7592 19.36C85.2992 19.36 84.9092 19.5 84.5892 19.78C84.2692 20.06 84.0759 20.45 84.0092 20.95Z" fill="#7AF4E6"/>
        <path d="M80.8052 21.09V23.86H80.1252V18.86H80.7852V19.54C81.1252 19.04 81.5786 18.79 82.1452 18.79C82.4386 18.79 82.6986 18.8566 82.9252 18.99L82.5152 19.58C82.3619 19.4933 82.1919 19.45 82.0052 19.45C81.6386 19.45 81.3452 19.5966 81.1252 19.89C80.9119 20.1833 80.8052 20.5833 80.8052 21.09Z" fill="#7AF4E6"/>
        <path d="M79.022 23.33V23.93H78.982C78.3154 23.93 77.8754 23.6066 77.662 22.96C77.242 23.6266 76.5787 23.96 75.672 23.96C74.932 23.96 74.332 23.7233 73.872 23.25C73.4187 22.7766 73.192 22.15 73.192 21.37C73.192 20.6166 73.4254 19.9933 73.892 19.5C74.3654 19.0066 74.9554 18.76 75.662 18.76C76.4487 18.76 77.092 19.0433 77.592 19.61V18.86H78.222V21.78C78.222 22.0533 78.2354 22.2866 78.262 22.48C78.3354 23.02 78.5887 23.3033 79.022 23.33ZM75.712 19.37C75.172 19.37 74.732 19.5566 74.392 19.93C74.052 20.2966 73.882 20.7766 73.882 21.37C73.882 21.9633 74.0487 22.4433 74.382 22.81C74.722 23.17 75.1654 23.35 75.712 23.35C76.2587 23.35 76.7054 23.1666 77.052 22.8C77.3987 22.4266 77.572 21.95 77.572 21.37C77.572 20.79 77.3987 20.3133 77.052 19.94C76.7054 19.56 76.2587 19.37 75.712 19.37Z" fill="#7AF4E6"/>
        <path d="M72.1709 22.96L72.5909 23.44C72.1509 23.7866 71.5809 23.96 70.8809 23.96C70.0742 23.96 69.4309 23.7233 68.9509 23.25C68.4775 22.77 68.2409 22.14 68.2409 21.36C68.2409 20.6066 68.4809 19.9866 68.9609 19.5C69.4409 19.0066 70.0642 18.76 70.8309 18.76C71.5242 18.76 72.1042 18.96 72.5709 19.36L72.0809 19.81C71.7475 19.5233 71.3309 19.38 70.8309 19.38C70.2509 19.38 69.7875 19.5666 69.4409 19.94C69.0942 20.3066 68.9209 20.78 68.9209 21.36C68.9209 21.9533 69.0975 22.43 69.4509 22.79C69.8042 23.15 70.2875 23.33 70.9009 23.33C71.4009 23.33 71.8242 23.2066 72.1709 22.96Z" fill="#7AF4E6"/>
        <path d="M66.5108 22.93L66.9308 23.42C66.4641 23.78 65.8574 23.96 65.1108 23.96C64.2974 23.96 63.6441 23.7333 63.1508 23.28C62.6574 22.8266 62.4108 22.19 62.4108 21.37C62.4108 20.6033 62.6408 19.9766 63.1008 19.49C63.5674 19.0033 64.1574 18.76 64.8708 18.76C65.6108 18.76 66.1941 18.98 66.6208 19.42C67.0541 19.86 67.2708 20.4433 67.2708 21.17C67.2708 21.2833 67.2641 21.4033 67.2508 21.53H63.1008C63.1408 22.1633 63.3441 22.6266 63.7108 22.92C64.0841 23.2066 64.5508 23.35 65.1108 23.35C65.6641 23.35 66.1308 23.21 66.5108 22.93ZM63.1108 20.95H66.5808C66.5341 20.4166 66.3541 20.02 66.0408 19.76C65.7274 19.4933 65.3341 19.36 64.8608 19.36C64.4008 19.36 64.0108 19.5 63.6908 19.78C63.3708 20.06 63.1774 20.45 63.1108 20.95Z" fill="#7AF4E6"/>
        <path d="M61.1561 20.89V23.86H60.4761V21.02C60.4761 20.4933 60.3394 20.0933 60.0661 19.82C59.7994 19.54 59.4428 19.4 58.9961 19.4C58.5761 19.4 58.2094 19.5467 57.8961 19.84C57.5894 20.1333 57.4361 20.5267 57.4361 21.02V23.86H56.7561V18.86H57.4361V19.56C57.8894 19.04 58.4594 18.78 59.1461 18.78C59.7461 18.78 60.2294 18.97 60.5961 19.35C60.9694 19.7233 61.1561 20.2367 61.1561 20.89Z" fill="#7AF4E6"/>
        <path d="M54.74 23.23C54.2667 23.7166 53.6567 23.96 52.91 23.96C52.1633 23.96 51.55 23.7166 51.07 23.23C50.5967 22.7433 50.36 22.12 50.36 21.36C50.36 20.5933 50.5967 19.97 51.07 19.49C51.5433 19.0033 52.1567 18.76 52.91 18.76C53.6633 18.76 54.2767 19.0033 54.75 19.49C55.2233 19.97 55.46 20.5933 55.46 21.36C55.46 22.12 55.22 22.7433 54.74 23.23ZM52.91 23.35C53.4367 23.35 53.8767 23.1666 54.23 22.8C54.59 22.4266 54.77 21.9433 54.77 21.35C54.77 20.7633 54.5933 20.2866 54.24 19.92C53.8867 19.5533 53.4433 19.37 52.91 19.37C52.3767 19.37 51.9333 19.5533 51.58 19.92C51.2267 20.28 51.05 20.7566 51.05 21.35C51.05 21.9366 51.2267 22.4166 51.58 22.79C51.9333 23.1633 52.3767 23.35 52.91 23.35Z" fill="#7AF4E6"/>
    </g>
    <defs>
        <clipPath id="clip0_9055_78">
            <rect width="122.5" height="28" fill="white"/>
        </clipPath>
    </defs>
</svg>